<mxfile host="app.diagrams.net" modified="2023-10-26T14:23:37.722Z" agent="Mozilla/5.0 (Windows NT 10.0; Win64; x64) AppleWebKit/537.36 (KHTML, like Gecko) Chrome/118.0.0.0 Safari/537.36 Edg/118.0.2088.61" etag="xaZNe-0PDJ3Zc-ZHQFmq" version="22.0.8" type="google">
  <diagram name="Page-1" id="jVmBdrZfugLYESS02I_D">
    <mxGraphModel grid="1" page="1" gridSize="10" guides="1" tooltips="1" connect="1" arrows="1" fold="1" pageScale="1" pageWidth="827" pageHeight="1169" math="0" shadow="0">
      <root>
        <mxCell id="0" />
        <mxCell id="1" parent="0" />
        <mxCell id="2Nrzgp7bzb5i9oUz-8Vb-2" value="" style="fontColor=#0066CC;verticalAlign=top;verticalLabelPosition=bottom;labelPosition=center;align=center;html=1;outlineConnect=0;fillColor=#CCCCCC;strokeColor=#6881B3;gradientColor=none;gradientDirection=north;strokeWidth=2;shape=mxgraph.networks.pc;" vertex="1" parent="1">
          <mxGeometry y="90" width="100" height="70" as="geometry" />
        </mxCell>
        <mxCell id="tthurgM7Ctqyl45bTZbo-19" style="edgeStyle=orthogonalEdgeStyle;rounded=0;sketch=1;hachureGap=4;jiggle=2;curveFitting=1;orthogonalLoop=1;jettySize=auto;html=1;exitX=0.5;exitY=1;exitDx=0;exitDy=0;exitPerimeter=0;fontFamily=Architects Daughter;fontSource=https%3A%2F%2Ffonts.googleapis.com%2Fcss%3Ffamily%3DArchitects%2BDaughter;fontSize=16;" edge="1" parent="1" source="2Nrzgp7bzb5i9oUz-8Vb-3" target="2Nrzgp7bzb5i9oUz-8Vb-2">
          <mxGeometry relative="1" as="geometry" />
        </mxCell>
        <mxCell id="2Nrzgp7bzb5i9oUz-8Vb-3" value="B" style="fontColor=#0066CC;verticalAlign=top;verticalLabelPosition=bottom;labelPosition=center;align=center;html=1;outlineConnect=0;fillColor=#CCCCCC;strokeColor=#6881B3;gradientColor=none;gradientDirection=north;strokeWidth=2;shape=mxgraph.networks.pc;fontFamily=Helvetica;fontStyle=1" vertex="1" parent="1">
          <mxGeometry y="10" width="100" height="70" as="geometry" />
        </mxCell>
        <mxCell id="ZGbP3mjb2TQSnQIAhp2x-68" style="edgeStyle=orthogonalEdgeStyle;rounded=0;orthogonalLoop=1;jettySize=auto;html=1;exitX=0.5;exitY=1;exitDx=0;exitDy=0;exitPerimeter=0;" edge="1" parent="1" source="2Nrzgp7bzb5i9oUz-8Vb-4" target="2Nrzgp7bzb5i9oUz-8Vb-17">
          <mxGeometry relative="1" as="geometry" />
        </mxCell>
        <mxCell id="2Nrzgp7bzb5i9oUz-8Vb-4" value="" style="fontColor=#0066CC;verticalAlign=top;verticalLabelPosition=bottom;labelPosition=center;align=center;html=1;outlineConnect=0;fillColor=#CCCCCC;strokeColor=#6881B3;gradientColor=none;gradientDirection=north;strokeWidth=2;shape=mxgraph.networks.pc;" vertex="1" parent="1">
          <mxGeometry y="170" width="100" height="70" as="geometry" />
        </mxCell>
        <mxCell id="ZGbP3mjb2TQSnQIAhp2x-37" style="edgeStyle=orthogonalEdgeStyle;rounded=0;orthogonalLoop=1;jettySize=auto;html=1;exitX=0;exitY=0.5;exitDx=0;exitDy=0;entryX=1;entryY=0.5;entryDx=0;entryDy=0;" edge="1" parent="1" source="2Nrzgp7bzb5i9oUz-8Vb-17" target="2Nrzgp7bzb5i9oUz-8Vb-21">
          <mxGeometry relative="1" as="geometry">
            <mxPoint x="-290" y="260" as="targetPoint" />
          </mxGeometry>
        </mxCell>
        <mxCell id="ZGbP3mjb2TQSnQIAhp2x-72" style="edgeStyle=orthogonalEdgeStyle;rounded=0;orthogonalLoop=1;jettySize=auto;html=1;exitX=0.5;exitY=1;exitDx=0;exitDy=0;" edge="1" parent="1" source="2Nrzgp7bzb5i9oUz-8Vb-17" target="ZGbP3mjb2TQSnQIAhp2x-62">
          <mxGeometry relative="1" as="geometry" />
        </mxCell>
        <mxCell id="2Nrzgp7bzb5i9oUz-8Vb-17" value="" style="image;html=1;image=img/lib/clip_art/networking/Switch_128x128.png" vertex="1" parent="1">
          <mxGeometry x="8" y="250" width="80" height="80" as="geometry" />
        </mxCell>
        <mxCell id="ZGbP3mjb2TQSnQIAhp2x-6" value="" style="edgeStyle=orthogonalEdgeStyle;rounded=0;orthogonalLoop=1;jettySize=auto;html=1;" edge="1" parent="1" target="2Nrzgp7bzb5i9oUz-8Vb-20">
          <mxGeometry relative="1" as="geometry">
            <mxPoint x="38" y="700" as="sourcePoint" />
          </mxGeometry>
        </mxCell>
        <mxCell id="2Nrzgp7bzb5i9oUz-8Vb-19" value="" style="shape=image;html=1;verticalAlign=top;verticalLabelPosition=bottom;labelBackgroundColor=#ffffff;imageAspect=0;aspect=fixed;image=https://cdn1.iconfinder.com/data/icons/general-9/500/laptop-128.png" vertex="1" parent="1">
          <mxGeometry x="-8" y="470" width="88" height="88" as="geometry" />
        </mxCell>
        <mxCell id="2Nrzgp7bzb5i9oUz-8Vb-20" value="" style="image;aspect=fixed;perimeter=ellipsePerimeter;html=1;align=center;shadow=0;dashed=0;spacingTop=3;image=img/lib/active_directory/tablet_pc.svg;" vertex="1" parent="1">
          <mxGeometry x="8" y="570" width="60" height="82.19" as="geometry" />
        </mxCell>
        <mxCell id="tthurgM7Ctqyl45bTZbo-21" style="edgeStyle=orthogonalEdgeStyle;rounded=0;sketch=1;hachureGap=4;jiggle=2;curveFitting=1;orthogonalLoop=1;jettySize=auto;html=1;exitX=0.5;exitY=1;exitDx=0;exitDy=0;fontFamily=Architects Daughter;fontSource=https%3A%2F%2Ffonts.googleapis.com%2Fcss%3Ffamily%3DArchitects%2BDaughter;fontSize=16;" edge="1" parent="1" source="2Nrzgp7bzb5i9oUz-8Vb-21" target="ZGbP3mjb2TQSnQIAhp2x-2">
          <mxGeometry relative="1" as="geometry" />
        </mxCell>
        <mxCell id="2Nrzgp7bzb5i9oUz-8Vb-21" value="" style="image;html=1;image=img/lib/clip_art/networking/Router_128x128.png" vertex="1" parent="1">
          <mxGeometry x="-120" y="280" width="80" height="80" as="geometry" />
        </mxCell>
        <mxCell id="ZGbP3mjb2TQSnQIAhp2x-2" value="" style="verticalLabelPosition=bottom;sketch=0;aspect=fixed;html=1;verticalAlign=top;strokeColor=none;align=center;outlineConnect=0;shape=mxgraph.citrix.dhcp_server;" vertex="1" parent="1">
          <mxGeometry x="-118" y="410" width="76" height="90" as="geometry" />
        </mxCell>
        <mxCell id="ZGbP3mjb2TQSnQIAhp2x-5" value="" style="edgeStyle=orthogonalEdgeStyle;rounded=0;orthogonalLoop=1;jettySize=auto;html=1;" edge="1" parent="1" source="ZGbP3mjb2TQSnQIAhp2x-4">
          <mxGeometry relative="1" as="geometry">
            <mxPoint x="38" y="700" as="targetPoint" />
          </mxGeometry>
        </mxCell>
        <mxCell id="ZGbP3mjb2TQSnQIAhp2x-4" value="" style="html=1;verticalLabelPosition=bottom;align=center;labelBackgroundColor=#ffffff;verticalAlign=top;strokeWidth=2;strokeColor=#0080F0;shadow=0;dashed=0;shape=mxgraph.ios7.icons.wifi;pointerEvents=1" vertex="1" parent="1">
          <mxGeometry x="23.15" y="460" width="29.7" height="21" as="geometry" />
        </mxCell>
        <mxCell id="ZGbP3mjb2TQSnQIAhp2x-14" value="" style="image;html=1;image=img/lib/clip_art/networking/Wireless_Router_128x128.png" vertex="1" parent="1">
          <mxGeometry x="10" y="670" width="80" height="80" as="geometry" />
        </mxCell>
        <mxCell id="ZGbP3mjb2TQSnQIAhp2x-15" value="" style="fontColor=#0066CC;verticalAlign=top;verticalLabelPosition=bottom;labelPosition=center;align=center;html=1;outlineConnect=0;fillColor=#CCCCCC;strokeColor=#6881B3;gradientColor=none;gradientDirection=north;strokeWidth=2;shape=mxgraph.networks.pc;" vertex="1" parent="1">
          <mxGeometry x="158" y="90" width="100" height="70" as="geometry" />
        </mxCell>
        <mxCell id="tthurgM7Ctqyl45bTZbo-17" style="edgeStyle=orthogonalEdgeStyle;rounded=0;sketch=1;hachureGap=4;jiggle=2;curveFitting=1;orthogonalLoop=1;jettySize=auto;html=1;exitX=0.5;exitY=1;exitDx=0;exitDy=0;exitPerimeter=0;fontFamily=Architects Daughter;fontSource=https%3A%2F%2Ffonts.googleapis.com%2Fcss%3Ffamily%3DArchitects%2BDaughter;fontSize=16;" edge="1" parent="1" source="ZGbP3mjb2TQSnQIAhp2x-16" target="ZGbP3mjb2TQSnQIAhp2x-15">
          <mxGeometry relative="1" as="geometry" />
        </mxCell>
        <mxCell id="ZGbP3mjb2TQSnQIAhp2x-16" value="" style="fontColor=#0066CC;verticalAlign=top;verticalLabelPosition=bottom;labelPosition=center;align=center;html=1;outlineConnect=0;fillColor=#CCCCCC;strokeColor=#6881B3;gradientColor=none;gradientDirection=north;strokeWidth=2;shape=mxgraph.networks.pc;fontFamily=Helvetica;fontStyle=1" vertex="1" parent="1">
          <mxGeometry x="158" y="10" width="100" height="70" as="geometry" />
        </mxCell>
        <mxCell id="ZGbP3mjb2TQSnQIAhp2x-69" style="edgeStyle=orthogonalEdgeStyle;rounded=0;orthogonalLoop=1;jettySize=auto;html=1;exitX=0.5;exitY=1;exitDx=0;exitDy=0;exitPerimeter=0;" edge="1" parent="1" source="ZGbP3mjb2TQSnQIAhp2x-17" target="ZGbP3mjb2TQSnQIAhp2x-18">
          <mxGeometry relative="1" as="geometry" />
        </mxCell>
        <mxCell id="tthurgM7Ctqyl45bTZbo-18" style="edgeStyle=orthogonalEdgeStyle;rounded=0;sketch=1;hachureGap=4;jiggle=2;curveFitting=1;orthogonalLoop=1;jettySize=auto;html=1;exitX=0.5;exitY=0.07;exitDx=0;exitDy=0;exitPerimeter=0;fontFamily=Architects Daughter;fontSource=https%3A%2F%2Ffonts.googleapis.com%2Fcss%3Ffamily%3DArchitects%2BDaughter;fontSize=16;" edge="1" parent="1" source="ZGbP3mjb2TQSnQIAhp2x-17" target="ZGbP3mjb2TQSnQIAhp2x-15">
          <mxGeometry relative="1" as="geometry" />
        </mxCell>
        <mxCell id="ZGbP3mjb2TQSnQIAhp2x-17" value="" style="fontColor=#0066CC;verticalAlign=top;verticalLabelPosition=bottom;labelPosition=center;align=center;html=1;outlineConnect=0;fillColor=#CCCCCC;strokeColor=#6881B3;gradientColor=none;gradientDirection=north;strokeWidth=2;shape=mxgraph.networks.pc;" vertex="1" parent="1">
          <mxGeometry x="158" y="170" width="100" height="70" as="geometry" />
        </mxCell>
        <mxCell id="ZGbP3mjb2TQSnQIAhp2x-38" style="edgeStyle=orthogonalEdgeStyle;rounded=0;orthogonalLoop=1;jettySize=auto;html=1;exitX=0;exitY=0.5;exitDx=0;exitDy=0;entryX=1;entryY=0.5;entryDx=0;entryDy=0;" edge="1" parent="1" source="ZGbP3mjb2TQSnQIAhp2x-18" target="2Nrzgp7bzb5i9oUz-8Vb-17">
          <mxGeometry relative="1" as="geometry" />
        </mxCell>
        <mxCell id="ZGbP3mjb2TQSnQIAhp2x-73" style="edgeStyle=orthogonalEdgeStyle;rounded=0;orthogonalLoop=1;jettySize=auto;html=1;exitX=0.5;exitY=1;exitDx=0;exitDy=0;" edge="1" parent="1" source="ZGbP3mjb2TQSnQIAhp2x-18" target="ZGbP3mjb2TQSnQIAhp2x-64">
          <mxGeometry relative="1" as="geometry" />
        </mxCell>
        <mxCell id="ZGbP3mjb2TQSnQIAhp2x-18" value="" style="image;html=1;image=img/lib/clip_art/networking/Switch_128x128.png" vertex="1" parent="1">
          <mxGeometry x="166" y="250" width="80" height="80" as="geometry" />
        </mxCell>
        <mxCell id="ZGbP3mjb2TQSnQIAhp2x-19" value="" style="edgeStyle=orthogonalEdgeStyle;rounded=0;orthogonalLoop=1;jettySize=auto;html=1;" edge="1" parent="1" target="ZGbP3mjb2TQSnQIAhp2x-21">
          <mxGeometry relative="1" as="geometry">
            <mxPoint x="196" y="700" as="sourcePoint" />
          </mxGeometry>
        </mxCell>
        <mxCell id="ZGbP3mjb2TQSnQIAhp2x-20" value="" style="shape=image;html=1;verticalAlign=top;verticalLabelPosition=bottom;labelBackgroundColor=#ffffff;imageAspect=0;aspect=fixed;image=https://cdn1.iconfinder.com/data/icons/general-9/500/laptop-128.png" vertex="1" parent="1">
          <mxGeometry x="150" y="470" width="88" height="88" as="geometry" />
        </mxCell>
        <mxCell id="ZGbP3mjb2TQSnQIAhp2x-21" value="" style="image;aspect=fixed;perimeter=ellipsePerimeter;html=1;align=center;shadow=0;dashed=0;spacingTop=3;image=img/lib/active_directory/tablet_pc.svg;" vertex="1" parent="1">
          <mxGeometry x="166" y="570" width="60" height="82.19" as="geometry" />
        </mxCell>
        <mxCell id="ZGbP3mjb2TQSnQIAhp2x-22" value="" style="edgeStyle=orthogonalEdgeStyle;rounded=0;orthogonalLoop=1;jettySize=auto;html=1;" edge="1" parent="1" source="ZGbP3mjb2TQSnQIAhp2x-23">
          <mxGeometry relative="1" as="geometry">
            <mxPoint x="196" y="700" as="targetPoint" />
          </mxGeometry>
        </mxCell>
        <mxCell id="ZGbP3mjb2TQSnQIAhp2x-23" value="" style="html=1;verticalLabelPosition=bottom;align=center;labelBackgroundColor=#ffffff;verticalAlign=top;strokeWidth=2;strokeColor=#0080F0;shadow=0;dashed=0;shape=mxgraph.ios7.icons.wifi;pointerEvents=1" vertex="1" parent="1">
          <mxGeometry x="181.15" y="460" width="29.7" height="21" as="geometry" />
        </mxCell>
        <mxCell id="ZGbP3mjb2TQSnQIAhp2x-24" value="" style="image;html=1;image=img/lib/clip_art/networking/Wireless_Router_128x128.png" vertex="1" parent="1">
          <mxGeometry x="168" y="670" width="80" height="80" as="geometry" />
        </mxCell>
        <mxCell id="ZGbP3mjb2TQSnQIAhp2x-70" style="edgeStyle=orthogonalEdgeStyle;rounded=0;orthogonalLoop=1;jettySize=auto;html=1;exitX=0.5;exitY=1;exitDx=0;exitDy=0;exitPerimeter=0;" edge="1" parent="1" source="ZGbP3mjb2TQSnQIAhp2x-25" target="ZGbP3mjb2TQSnQIAhp2x-27">
          <mxGeometry relative="1" as="geometry" />
        </mxCell>
        <mxCell id="ZGbP3mjb2TQSnQIAhp2x-25" value="" style="fontColor=#0066CC;verticalAlign=top;verticalLabelPosition=bottom;labelPosition=center;align=center;html=1;outlineConnect=0;fillColor=#CCCCCC;strokeColor=#6881B3;gradientColor=none;gradientDirection=north;strokeWidth=2;shape=mxgraph.networks.pc;" vertex="1" parent="1">
          <mxGeometry x="298" y="90" width="100" height="70" as="geometry" />
        </mxCell>
        <mxCell id="tthurgM7Ctqyl45bTZbo-16" style="edgeStyle=orthogonalEdgeStyle;rounded=0;sketch=1;hachureGap=4;jiggle=2;curveFitting=1;orthogonalLoop=1;jettySize=auto;html=1;exitX=0.5;exitY=1;exitDx=0;exitDy=0;exitPerimeter=0;fontFamily=Architects Daughter;fontSource=https%3A%2F%2Ffonts.googleapis.com%2Fcss%3Ffamily%3DArchitects%2BDaughter;fontSize=16;" edge="1" parent="1" source="ZGbP3mjb2TQSnQIAhp2x-26" target="ZGbP3mjb2TQSnQIAhp2x-25">
          <mxGeometry relative="1" as="geometry" />
        </mxCell>
        <mxCell id="ZGbP3mjb2TQSnQIAhp2x-26" value="" style="fontColor=#0066CC;verticalAlign=top;verticalLabelPosition=bottom;labelPosition=center;align=center;html=1;outlineConnect=0;fillColor=#CCCCCC;strokeColor=#6881B3;gradientColor=none;gradientDirection=north;strokeWidth=2;shape=mxgraph.networks.pc;fontFamily=Helvetica;fontStyle=1" vertex="1" parent="1">
          <mxGeometry x="298" y="10" width="100" height="70" as="geometry" />
        </mxCell>
        <mxCell id="ZGbP3mjb2TQSnQIAhp2x-74" style="edgeStyle=orthogonalEdgeStyle;rounded=0;orthogonalLoop=1;jettySize=auto;html=1;exitX=0.5;exitY=1;exitDx=0;exitDy=0;exitPerimeter=0;" edge="1" parent="1" source="ZGbP3mjb2TQSnQIAhp2x-27" target="ZGbP3mjb2TQSnQIAhp2x-28">
          <mxGeometry relative="1" as="geometry" />
        </mxCell>
        <mxCell id="ZGbP3mjb2TQSnQIAhp2x-27" value="" style="fontColor=#0066CC;verticalAlign=top;verticalLabelPosition=bottom;labelPosition=center;align=center;html=1;outlineConnect=0;fillColor=#CCCCCC;strokeColor=#6881B3;gradientColor=none;gradientDirection=north;strokeWidth=2;shape=mxgraph.networks.pc;" vertex="1" parent="1">
          <mxGeometry x="298" y="170" width="100" height="70" as="geometry" />
        </mxCell>
        <mxCell id="ZGbP3mjb2TQSnQIAhp2x-39" style="edgeStyle=orthogonalEdgeStyle;rounded=0;orthogonalLoop=1;jettySize=auto;html=1;exitX=0;exitY=0.5;exitDx=0;exitDy=0;" edge="1" parent="1" source="ZGbP3mjb2TQSnQIAhp2x-28" target="ZGbP3mjb2TQSnQIAhp2x-18">
          <mxGeometry relative="1" as="geometry" />
        </mxCell>
        <mxCell id="tthurgM7Ctqyl45bTZbo-9" style="edgeStyle=orthogonalEdgeStyle;rounded=0;sketch=1;hachureGap=4;jiggle=2;curveFitting=1;orthogonalLoop=1;jettySize=auto;html=1;exitX=0.5;exitY=1;exitDx=0;exitDy=0;fontFamily=Architects Daughter;fontSource=https%3A%2F%2Ffonts.googleapis.com%2Fcss%3Ffamily%3DArchitects%2BDaughter;fontSize=16;" edge="1" parent="1" source="ZGbP3mjb2TQSnQIAhp2x-28" target="ZGbP3mjb2TQSnQIAhp2x-65">
          <mxGeometry relative="1" as="geometry" />
        </mxCell>
        <mxCell id="ZGbP3mjb2TQSnQIAhp2x-28" value="" style="image;html=1;image=img/lib/clip_art/networking/Switch_128x128.png" vertex="1" parent="1">
          <mxGeometry x="306" y="250" width="80" height="80" as="geometry" />
        </mxCell>
        <mxCell id="ZGbP3mjb2TQSnQIAhp2x-29" value="" style="edgeStyle=orthogonalEdgeStyle;rounded=0;orthogonalLoop=1;jettySize=auto;html=1;" edge="1" parent="1" target="ZGbP3mjb2TQSnQIAhp2x-31">
          <mxGeometry relative="1" as="geometry">
            <mxPoint x="336" y="700" as="sourcePoint" />
          </mxGeometry>
        </mxCell>
        <mxCell id="ZGbP3mjb2TQSnQIAhp2x-30" value="" style="shape=image;html=1;verticalAlign=top;verticalLabelPosition=bottom;labelBackgroundColor=#ffffff;imageAspect=0;aspect=fixed;image=https://cdn1.iconfinder.com/data/icons/general-9/500/laptop-128.png" vertex="1" parent="1">
          <mxGeometry x="290" y="470" width="88" height="88" as="geometry" />
        </mxCell>
        <mxCell id="ZGbP3mjb2TQSnQIAhp2x-31" value="" style="image;aspect=fixed;perimeter=ellipsePerimeter;html=1;align=center;shadow=0;dashed=0;spacingTop=3;image=img/lib/active_directory/tablet_pc.svg;" vertex="1" parent="1">
          <mxGeometry x="306" y="570" width="60" height="82.19" as="geometry" />
        </mxCell>
        <mxCell id="ZGbP3mjb2TQSnQIAhp2x-32" value="" style="edgeStyle=orthogonalEdgeStyle;rounded=0;orthogonalLoop=1;jettySize=auto;html=1;" edge="1" parent="1" source="ZGbP3mjb2TQSnQIAhp2x-33">
          <mxGeometry relative="1" as="geometry">
            <mxPoint x="336" y="700" as="targetPoint" />
          </mxGeometry>
        </mxCell>
        <mxCell id="ZGbP3mjb2TQSnQIAhp2x-33" value="" style="html=1;verticalLabelPosition=bottom;align=center;labelBackgroundColor=#ffffff;verticalAlign=top;strokeWidth=2;strokeColor=#0080F0;shadow=0;dashed=0;shape=mxgraph.ios7.icons.wifi;pointerEvents=1" vertex="1" parent="1">
          <mxGeometry x="321.15" y="460" width="29.7" height="21" as="geometry" />
        </mxCell>
        <mxCell id="ZGbP3mjb2TQSnQIAhp2x-34" value="" style="image;html=1;image=img/lib/clip_art/networking/Wireless_Router_128x128.png" vertex="1" parent="1">
          <mxGeometry x="308" y="670" width="80" height="80" as="geometry" />
        </mxCell>
        <mxCell id="tthurgM7Ctqyl45bTZbo-12" style="edgeStyle=orthogonalEdgeStyle;rounded=0;sketch=1;hachureGap=4;jiggle=2;curveFitting=1;orthogonalLoop=1;jettySize=auto;html=1;exitX=0.5;exitY=1;exitDx=0;exitDy=0;exitPerimeter=0;fontFamily=Architects Daughter;fontSource=https%3A%2F%2Ffonts.googleapis.com%2Fcss%3Ffamily%3DArchitects%2BDaughter;fontSize=16;" edge="1" parent="1" source="ZGbP3mjb2TQSnQIAhp2x-40" target="ZGbP3mjb2TQSnQIAhp2x-42">
          <mxGeometry relative="1" as="geometry" />
        </mxCell>
        <mxCell id="ZGbP3mjb2TQSnQIAhp2x-40" value="" style="fontColor=#0066CC;verticalAlign=top;verticalLabelPosition=bottom;labelPosition=center;align=center;html=1;outlineConnect=0;fillColor=#CCCCCC;strokeColor=#6881B3;gradientColor=none;gradientDirection=north;strokeWidth=2;shape=mxgraph.networks.pc;" vertex="1" parent="1">
          <mxGeometry x="438" y="90" width="100" height="70" as="geometry" />
        </mxCell>
        <mxCell id="tthurgM7Ctqyl45bTZbo-15" style="edgeStyle=orthogonalEdgeStyle;rounded=0;sketch=1;hachureGap=4;jiggle=2;curveFitting=1;orthogonalLoop=1;jettySize=auto;html=1;exitX=0.5;exitY=1;exitDx=0;exitDy=0;exitPerimeter=0;fontFamily=Architects Daughter;fontSource=https%3A%2F%2Ffonts.googleapis.com%2Fcss%3Ffamily%3DArchitects%2BDaughter;fontSize=16;" edge="1" parent="1" source="ZGbP3mjb2TQSnQIAhp2x-41" target="ZGbP3mjb2TQSnQIAhp2x-40">
          <mxGeometry relative="1" as="geometry" />
        </mxCell>
        <mxCell id="ZGbP3mjb2TQSnQIAhp2x-41" value="" style="fontColor=#0066CC;verticalAlign=top;verticalLabelPosition=bottom;labelPosition=center;align=center;html=1;outlineConnect=0;fillColor=#CCCCCC;strokeColor=#6881B3;gradientColor=none;gradientDirection=north;strokeWidth=2;shape=mxgraph.networks.pc;fontFamily=Helvetica;fontStyle=1" vertex="1" parent="1">
          <mxGeometry x="438" y="10" width="100" height="70" as="geometry" />
        </mxCell>
        <mxCell id="ZGbP3mjb2TQSnQIAhp2x-75" style="edgeStyle=orthogonalEdgeStyle;rounded=0;orthogonalLoop=1;jettySize=auto;html=1;exitX=0.5;exitY=1;exitDx=0;exitDy=0;exitPerimeter=0;" edge="1" parent="1" source="ZGbP3mjb2TQSnQIAhp2x-42" target="ZGbP3mjb2TQSnQIAhp2x-43">
          <mxGeometry relative="1" as="geometry" />
        </mxCell>
        <mxCell id="ZGbP3mjb2TQSnQIAhp2x-42" value="" style="fontColor=#0066CC;verticalAlign=top;verticalLabelPosition=bottom;labelPosition=center;align=center;html=1;outlineConnect=0;fillColor=#CCCCCC;strokeColor=#6881B3;gradientColor=none;gradientDirection=north;strokeWidth=2;shape=mxgraph.networks.pc;" vertex="1" parent="1">
          <mxGeometry x="438" y="170" width="100" height="70" as="geometry" />
        </mxCell>
        <mxCell id="ZGbP3mjb2TQSnQIAhp2x-50" style="edgeStyle=orthogonalEdgeStyle;rounded=0;orthogonalLoop=1;jettySize=auto;html=1;exitX=0;exitY=0.5;exitDx=0;exitDy=0;" edge="1" parent="1" source="ZGbP3mjb2TQSnQIAhp2x-43" target="ZGbP3mjb2TQSnQIAhp2x-28">
          <mxGeometry relative="1" as="geometry" />
        </mxCell>
        <mxCell id="tthurgM7Ctqyl45bTZbo-10" style="edgeStyle=orthogonalEdgeStyle;rounded=0;sketch=1;hachureGap=4;jiggle=2;curveFitting=1;orthogonalLoop=1;jettySize=auto;html=1;exitX=0.5;exitY=1;exitDx=0;exitDy=0;fontFamily=Architects Daughter;fontSource=https%3A%2F%2Ffonts.googleapis.com%2Fcss%3Ffamily%3DArchitects%2BDaughter;fontSize=16;" edge="1" parent="1" source="ZGbP3mjb2TQSnQIAhp2x-43" target="ZGbP3mjb2TQSnQIAhp2x-66">
          <mxGeometry relative="1" as="geometry" />
        </mxCell>
        <mxCell id="ZGbP3mjb2TQSnQIAhp2x-43" value="" style="image;html=1;image=img/lib/clip_art/networking/Switch_128x128.png" vertex="1" parent="1">
          <mxGeometry x="446" y="250" width="80" height="80" as="geometry" />
        </mxCell>
        <mxCell id="ZGbP3mjb2TQSnQIAhp2x-44" value="" style="edgeStyle=orthogonalEdgeStyle;rounded=0;orthogonalLoop=1;jettySize=auto;html=1;" edge="1" parent="1" target="ZGbP3mjb2TQSnQIAhp2x-46">
          <mxGeometry relative="1" as="geometry">
            <mxPoint x="476" y="700" as="sourcePoint" />
          </mxGeometry>
        </mxCell>
        <mxCell id="ZGbP3mjb2TQSnQIAhp2x-45" value="" style="shape=image;html=1;verticalAlign=top;verticalLabelPosition=bottom;labelBackgroundColor=#ffffff;imageAspect=0;aspect=fixed;image=https://cdn1.iconfinder.com/data/icons/general-9/500/laptop-128.png" vertex="1" parent="1">
          <mxGeometry x="430" y="470" width="88" height="88" as="geometry" />
        </mxCell>
        <mxCell id="ZGbP3mjb2TQSnQIAhp2x-46" value="" style="image;aspect=fixed;perimeter=ellipsePerimeter;html=1;align=center;shadow=0;dashed=0;spacingTop=3;image=img/lib/active_directory/tablet_pc.svg;" vertex="1" parent="1">
          <mxGeometry x="446" y="570" width="60" height="82.19" as="geometry" />
        </mxCell>
        <mxCell id="ZGbP3mjb2TQSnQIAhp2x-47" value="" style="edgeStyle=orthogonalEdgeStyle;rounded=0;orthogonalLoop=1;jettySize=auto;html=1;" edge="1" parent="1" source="ZGbP3mjb2TQSnQIAhp2x-48">
          <mxGeometry relative="1" as="geometry">
            <mxPoint x="476" y="700" as="targetPoint" />
          </mxGeometry>
        </mxCell>
        <mxCell id="ZGbP3mjb2TQSnQIAhp2x-48" value="" style="html=1;verticalLabelPosition=bottom;align=center;labelBackgroundColor=#ffffff;verticalAlign=top;strokeWidth=2;strokeColor=#0080F0;shadow=0;dashed=0;shape=mxgraph.ios7.icons.wifi;pointerEvents=1" vertex="1" parent="1">
          <mxGeometry x="461.15" y="460" width="29.7" height="21" as="geometry" />
        </mxCell>
        <mxCell id="ZGbP3mjb2TQSnQIAhp2x-49" value="" style="image;html=1;image=img/lib/clip_art/networking/Wireless_Router_128x128.png" vertex="1" parent="1">
          <mxGeometry x="448" y="670" width="80" height="80" as="geometry" />
        </mxCell>
        <mxCell id="tthurgM7Ctqyl45bTZbo-13" style="edgeStyle=orthogonalEdgeStyle;rounded=0;sketch=1;hachureGap=4;jiggle=2;curveFitting=1;orthogonalLoop=1;jettySize=auto;html=1;exitX=0.5;exitY=1;exitDx=0;exitDy=0;exitPerimeter=0;fontFamily=Architects Daughter;fontSource=https%3A%2F%2Ffonts.googleapis.com%2Fcss%3Ffamily%3DArchitects%2BDaughter;fontSize=16;" edge="1" parent="1" source="ZGbP3mjb2TQSnQIAhp2x-51" target="ZGbP3mjb2TQSnQIAhp2x-53">
          <mxGeometry relative="1" as="geometry" />
        </mxCell>
        <mxCell id="ZGbP3mjb2TQSnQIAhp2x-51" value="" style="fontColor=#0066CC;verticalAlign=top;verticalLabelPosition=bottom;labelPosition=center;align=center;html=1;outlineConnect=0;fillColor=#CCCCCC;strokeColor=#6881B3;gradientColor=none;gradientDirection=north;strokeWidth=2;shape=mxgraph.networks.pc;" vertex="1" parent="1">
          <mxGeometry x="568" y="90" width="100" height="70" as="geometry" />
        </mxCell>
        <mxCell id="tthurgM7Ctqyl45bTZbo-14" style="edgeStyle=orthogonalEdgeStyle;rounded=0;sketch=1;hachureGap=4;jiggle=2;curveFitting=1;orthogonalLoop=1;jettySize=auto;html=1;exitX=0.5;exitY=1;exitDx=0;exitDy=0;exitPerimeter=0;fontFamily=Architects Daughter;fontSource=https%3A%2F%2Ffonts.googleapis.com%2Fcss%3Ffamily%3DArchitects%2BDaughter;fontSize=16;" edge="1" parent="1" source="ZGbP3mjb2TQSnQIAhp2x-52" target="ZGbP3mjb2TQSnQIAhp2x-51">
          <mxGeometry relative="1" as="geometry" />
        </mxCell>
        <mxCell id="ZGbP3mjb2TQSnQIAhp2x-52" value="" style="fontColor=#0066CC;verticalAlign=top;verticalLabelPosition=bottom;labelPosition=center;align=center;html=1;outlineConnect=0;fillColor=#CCCCCC;strokeColor=#6881B3;gradientColor=none;gradientDirection=north;strokeWidth=2;shape=mxgraph.networks.pc;fontFamily=Helvetica;fontStyle=1" vertex="1" parent="1">
          <mxGeometry x="568" y="10" width="100" height="70" as="geometry" />
        </mxCell>
        <mxCell id="ZGbP3mjb2TQSnQIAhp2x-77" style="edgeStyle=orthogonalEdgeStyle;rounded=0;orthogonalLoop=1;jettySize=auto;html=1;exitX=0.5;exitY=1;exitDx=0;exitDy=0;exitPerimeter=0;" edge="1" parent="1" source="ZGbP3mjb2TQSnQIAhp2x-53" target="ZGbP3mjb2TQSnQIAhp2x-54">
          <mxGeometry relative="1" as="geometry" />
        </mxCell>
        <mxCell id="ZGbP3mjb2TQSnQIAhp2x-53" value="" style="fontColor=#0066CC;verticalAlign=top;verticalLabelPosition=bottom;labelPosition=center;align=center;html=1;outlineConnect=0;fillColor=#CCCCCC;strokeColor=#6881B3;gradientColor=none;gradientDirection=north;strokeWidth=2;shape=mxgraph.networks.pc;" vertex="1" parent="1">
          <mxGeometry x="568" y="170" width="100" height="70" as="geometry" />
        </mxCell>
        <mxCell id="ZGbP3mjb2TQSnQIAhp2x-61" style="edgeStyle=orthogonalEdgeStyle;rounded=0;orthogonalLoop=1;jettySize=auto;html=1;exitX=0;exitY=0.5;exitDx=0;exitDy=0;" edge="1" parent="1" source="ZGbP3mjb2TQSnQIAhp2x-54" target="ZGbP3mjb2TQSnQIAhp2x-43">
          <mxGeometry relative="1" as="geometry" />
        </mxCell>
        <mxCell id="tthurgM7Ctqyl45bTZbo-11" style="edgeStyle=orthogonalEdgeStyle;rounded=0;sketch=1;hachureGap=4;jiggle=2;curveFitting=1;orthogonalLoop=1;jettySize=auto;html=1;exitX=0.5;exitY=1;exitDx=0;exitDy=0;fontFamily=Architects Daughter;fontSource=https%3A%2F%2Ffonts.googleapis.com%2Fcss%3Ffamily%3DArchitects%2BDaughter;fontSize=16;" edge="1" parent="1" source="ZGbP3mjb2TQSnQIAhp2x-54" target="ZGbP3mjb2TQSnQIAhp2x-67">
          <mxGeometry relative="1" as="geometry" />
        </mxCell>
        <mxCell id="ZGbP3mjb2TQSnQIAhp2x-54" value="" style="image;html=1;image=img/lib/clip_art/networking/Switch_128x128.png" vertex="1" parent="1">
          <mxGeometry x="576" y="250" width="80" height="80" as="geometry" />
        </mxCell>
        <mxCell id="ZGbP3mjb2TQSnQIAhp2x-55" value="" style="edgeStyle=orthogonalEdgeStyle;rounded=0;orthogonalLoop=1;jettySize=auto;html=1;" edge="1" parent="1" target="ZGbP3mjb2TQSnQIAhp2x-57">
          <mxGeometry relative="1" as="geometry">
            <mxPoint x="606" y="700" as="sourcePoint" />
          </mxGeometry>
        </mxCell>
        <mxCell id="ZGbP3mjb2TQSnQIAhp2x-56" value="" style="shape=image;html=1;verticalAlign=top;verticalLabelPosition=bottom;labelBackgroundColor=#ffffff;imageAspect=0;aspect=fixed;image=https://cdn1.iconfinder.com/data/icons/general-9/500/laptop-128.png" vertex="1" parent="1">
          <mxGeometry x="560" y="470" width="88" height="88" as="geometry" />
        </mxCell>
        <mxCell id="ZGbP3mjb2TQSnQIAhp2x-57" value="" style="image;aspect=fixed;perimeter=ellipsePerimeter;html=1;align=center;shadow=0;dashed=0;spacingTop=3;image=img/lib/active_directory/tablet_pc.svg;" vertex="1" parent="1">
          <mxGeometry x="576" y="570" width="60" height="82.19" as="geometry" />
        </mxCell>
        <mxCell id="ZGbP3mjb2TQSnQIAhp2x-58" value="" style="edgeStyle=orthogonalEdgeStyle;rounded=0;orthogonalLoop=1;jettySize=auto;html=1;" edge="1" parent="1" source="ZGbP3mjb2TQSnQIAhp2x-59">
          <mxGeometry relative="1" as="geometry">
            <mxPoint x="606" y="700" as="targetPoint" />
          </mxGeometry>
        </mxCell>
        <mxCell id="ZGbP3mjb2TQSnQIAhp2x-59" value="" style="html=1;verticalLabelPosition=bottom;align=center;labelBackgroundColor=#ffffff;verticalAlign=top;strokeWidth=2;strokeColor=#0080F0;shadow=0;dashed=0;shape=mxgraph.ios7.icons.wifi;pointerEvents=1" vertex="1" parent="1">
          <mxGeometry x="591.15" y="460" width="29.7" height="21" as="geometry" />
        </mxCell>
        <mxCell id="ZGbP3mjb2TQSnQIAhp2x-60" value="" style="image;html=1;image=img/lib/clip_art/networking/Wireless_Router_128x128.png" vertex="1" parent="1">
          <mxGeometry x="578" y="670" width="80" height="80" as="geometry" />
        </mxCell>
        <mxCell id="ZGbP3mjb2TQSnQIAhp2x-62" value="" style="verticalLabelPosition=bottom;sketch=0;aspect=fixed;html=1;verticalAlign=top;strokeColor=none;align=center;outlineConnect=0;shape=mxgraph.citrix.printer;" vertex="1" parent="1">
          <mxGeometry x="15" y="350" width="70" height="70" as="geometry" />
        </mxCell>
        <mxCell id="ZGbP3mjb2TQSnQIAhp2x-64" value="" style="verticalLabelPosition=bottom;sketch=0;aspect=fixed;html=1;verticalAlign=top;strokeColor=none;align=center;outlineConnect=0;shape=mxgraph.citrix.printer;" vertex="1" parent="1">
          <mxGeometry x="161" y="350" width="70" height="70" as="geometry" />
        </mxCell>
        <mxCell id="ZGbP3mjb2TQSnQIAhp2x-65" value="" style="verticalLabelPosition=bottom;sketch=0;aspect=fixed;html=1;verticalAlign=top;strokeColor=none;align=center;outlineConnect=0;shape=mxgraph.citrix.printer;" vertex="1" parent="1">
          <mxGeometry x="306" y="360" width="70" height="70" as="geometry" />
        </mxCell>
        <mxCell id="ZGbP3mjb2TQSnQIAhp2x-66" value="" style="verticalLabelPosition=bottom;sketch=0;aspect=fixed;html=1;verticalAlign=top;strokeColor=none;align=center;outlineConnect=0;shape=mxgraph.citrix.printer;" vertex="1" parent="1">
          <mxGeometry x="451" y="360" width="70" height="70" as="geometry" />
        </mxCell>
        <mxCell id="ZGbP3mjb2TQSnQIAhp2x-67" value="" style="verticalLabelPosition=bottom;sketch=0;aspect=fixed;html=1;verticalAlign=top;strokeColor=none;align=center;outlineConnect=0;shape=mxgraph.citrix.printer;" vertex="1" parent="1">
          <mxGeometry x="581" y="360" width="70" height="70" as="geometry" />
        </mxCell>
        <mxCell id="tthurgM7Ctqyl45bTZbo-7" style="edgeStyle=orthogonalEdgeStyle;rounded=0;sketch=1;hachureGap=4;jiggle=2;curveFitting=1;orthogonalLoop=1;jettySize=auto;html=1;exitX=1;exitY=0.5;exitDx=0;exitDy=0;entryX=0;entryY=0.5;entryDx=0;entryDy=0;fontFamily=Architects Daughter;fontSource=https%3A%2F%2Ffonts.googleapis.com%2Fcss%3Ffamily%3DArchitects%2BDaughter;fontSize=16;" edge="1" parent="1" source="tthurgM7Ctqyl45bTZbo-1" target="2Nrzgp7bzb5i9oUz-8Vb-21">
          <mxGeometry relative="1" as="geometry" />
        </mxCell>
        <mxCell id="tthurgM7Ctqyl45bTZbo-1" value="" style="image;html=1;image=img/lib/clip_art/networking/Switch_128x128.png" vertex="1" parent="1">
          <mxGeometry x="-290" y="270" width="80" height="80" as="geometry" />
        </mxCell>
        <mxCell id="tthurgM7Ctqyl45bTZbo-6" style="edgeStyle=orthogonalEdgeStyle;rounded=0;sketch=1;hachureGap=4;jiggle=2;curveFitting=1;orthogonalLoop=1;jettySize=auto;html=1;exitX=1;exitY=0.75;exitDx=0;exitDy=0;fontFamily=Architects Daughter;fontSource=https%3A%2F%2Ffonts.googleapis.com%2Fcss%3Ffamily%3DArchitects%2BDaughter;fontSize=16;" edge="1" parent="1" source="tthurgM7Ctqyl45bTZbo-2" target="tthurgM7Ctqyl45bTZbo-1">
          <mxGeometry relative="1" as="geometry" />
        </mxCell>
        <mxCell id="tthurgM7Ctqyl45bTZbo-2" value="" style="image;html=1;image=img/lib/clip_art/networking/Wireless_Router_128x128.png" vertex="1" parent="1">
          <mxGeometry x="-413" y="260" width="80" height="80" as="geometry" />
        </mxCell>
        <mxCell id="tthurgM7Ctqyl45bTZbo-3" value="" style="shape=image;html=1;verticalAlign=top;verticalLabelPosition=bottom;labelBackgroundColor=#ffffff;imageAspect=0;aspect=fixed;image=https://cdn4.iconfinder.com/data/icons/ionicons/512/icon-iphone-128.png;sketch=1;hachureGap=4;jiggle=2;curveFitting=1;fontFamily=Architects Daughter;fontSource=https%3A%2F%2Ffonts.googleapis.com%2Fcss%3Ffamily%3DArchitects%2BDaughter;fontSize=20;" vertex="1" parent="1">
          <mxGeometry x="-452" y="150" width="78" height="78" as="geometry" />
        </mxCell>
        <mxCell id="tthurgM7Ctqyl45bTZbo-4" value="" style="shape=image;html=1;verticalAlign=top;verticalLabelPosition=bottom;labelBackgroundColor=#ffffff;imageAspect=0;aspect=fixed;image=https://cdn4.iconfinder.com/data/icons/ionicons/512/icon-iphone-128.png;sketch=1;hachureGap=4;jiggle=2;curveFitting=1;fontFamily=Architects Daughter;fontSource=https%3A%2F%2Ffonts.googleapis.com%2Fcss%3Ffamily%3DArchitects%2BDaughter;fontSize=20;" vertex="1" parent="1">
          <mxGeometry x="-382" y="150" width="78" height="78" as="geometry" />
        </mxCell>
        <mxCell id="tthurgM7Ctqyl45bTZbo-5" value="" style="html=1;verticalLabelPosition=bottom;align=center;labelBackgroundColor=#ffffff;verticalAlign=top;strokeWidth=2;strokeColor=#0080F0;shadow=0;dashed=0;shape=mxgraph.ios7.icons.wifi;pointerEvents=1" vertex="1" parent="1">
          <mxGeometry x="-400" y="228" width="40" height="41" as="geometry" />
        </mxCell>
        <mxCell id="tthurgM7Ctqyl45bTZbo-20" style="edgeStyle=orthogonalEdgeStyle;rounded=0;sketch=1;hachureGap=4;jiggle=2;curveFitting=1;orthogonalLoop=1;jettySize=auto;html=1;exitX=0.5;exitY=1;exitDx=0;exitDy=0;exitPerimeter=0;entryX=0.5;entryY=0.07;entryDx=0;entryDy=0;entryPerimeter=0;fontFamily=Architects Daughter;fontSource=https%3A%2F%2Ffonts.googleapis.com%2Fcss%3Ffamily%3DArchitects%2BDaughter;fontSize=16;" edge="1" parent="1" source="2Nrzgp7bzb5i9oUz-8Vb-2" target="2Nrzgp7bzb5i9oUz-8Vb-4">
          <mxGeometry relative="1" as="geometry" />
        </mxCell>
      </root>
    </mxGraphModel>
  </diagram>
</mxfile>
